<svg width="353" height="80" viewBox="0 0 353 80" fill="#041337" xmlns="http://www.w3.org/2000/svg">
<path d="M198.4 56.6C198.2 61 196.6 63.9 192.7 63.9H184.5V42.8H185.1C189.1 43 190.4 43.6 190.4 48V49L193.2 48.5V34.8L190.4 35.1V35.7C190.4 40.1 189.1 40.7 185.1 40.9H184.5V21.9H191.6C195.5 21.9 197 24.8 197.2 29.2V30.2L200.7 30L200 16.8L196.5 17L196.6 19.3H175.2L175 21.6C175 21.6 175.6 21.7 176.2 21.8C177.3 22.1 177.9 22.7 177.9 23.8V62.1C177.9 63.2 177.3 63.8 176.2 64.1C175.6 64.2 175.3 64.3 175.3 64.3L175.1 66.6H182.1H198L197.9 68.9L201.4 69.1L202.1 55.9L198.6 55.7L198.4 56.6Z"/>
<path d="M74.7 62.1L64.2 21.6C60.3 6.3 50.3 1.2 39.7 0.799997C28.8 0.299997 21.8 7.5 21.6 13C21.5 17.2 24.1 19.4 27.7 19.4L29.9 17.2C21.3 17.2 24.4 2.7 37.9 2.7C54 2.7 56.4 18.7 56.4 18.7L47.5 44.9H44.2C40.3 44.7 39.7 43.7 41.1 39.5L41.4 38.6L38.8 38.3L34.3 52L36.8 52.3L37.1 51.5C38.4 47.4 40.1 47.8 43.9 47.6H46.6L44.8 52.8C40.8 64 31.2 75.8 19.4 75.9C9.59999 76 5.29999 69.5 5.69999 63.1C5.79999 62 5.89999 61.1 6.19999 60.2C8.29999 60.7 10.8 60.7 13.8 59.9C21.8 57.8 22.9 53.2 22 51.3C21.2 49.6 18.7 48.5 14.5 49.5C11 50.4 7.49999 52.4 4.89999 55.3C-0.500013 47 9.49999 40.7 9.49999 40.7L8.29999 40.1C3.49999 42.3 -0.500014 47.5 0.0999864 53.2C0.299986 55.4 1.19999 57.2 2.69999 58.5C1.99999 59.9 1.49999 61.4 1.19999 63.1C-0.300013 73.9 10.8 78.9 20.5 78.1C36 76.8 45.4 65.4 49.1 54.8L51.6 47.5H64.2L68 62C68.3 63.1 67.4 63.7 66.3 64C65.7 64.1 64.4 64.2 64.4 64.2L64.2 66.5H78.4L78.6 64.2C78.6 64.2 76.9 64.1 76.3 64C75.6 63.9 75 63.2 74.7 62.1ZM12.4 52.5C14.6 51.5 17.6 51.2 18.1 53.3C18.6 55.5 16.4 56.8 14.8 57.4C13.8 57.8 9.79999 58.8 7.09999 57.6C8.69999 54.7 11.1 53.1 12.4 52.5ZM52.6 44.8L58.8 27L63.5 44.9L52.6 44.8Z"/>
<path d="M168 62.1V23.7C168 22.6 168.7 22 169.7 21.8C170.3 21.7 170.6 21.6 170.6 21.6L170.8 19.3H158.7L158.5 21.6C158.5 21.6 159.1 21.7 159.7 21.8C160.8 22.1 161.5 22.8 161.5 23.9V40.6H149.5V23.7C149.5 22.6 150.1 22 151.2 21.7C151.8 21.6 152.1 21.5 152.1 21.5L152.3 19.2H140.2L140 21.5C140 21.5 140.6 21.6 141.2 21.7C142.3 22 142.9 22.6 142.9 23.7V62.1C142.9 63.2 142.3 63.8 141.2 64.1C140.6 64.2 140.3 64.3 140.3 64.3L140.1 66.6H152.2L152.4 64.3C152.4 64.3 151.8 64.2 151.2 64.1C150.1 63.8 149.5 63.2 149.5 62.1V43.2H161.5V62C161.5 63.1 160.8 63.8 159.7 64.1C159.1 64.2 158.8 64.3 158.8 64.3L158.6 66.6H170.7L170.9 64.3C170.9 64.3 170.3 64.2 169.7 64.1C168.6 63.8 168 63.2 168 62.1Z"/>
<path d="M233.9 62.1V23.7C233.9 22.6 234.6 22 235.6 21.8C236.2 21.7 236.5 21.6 236.5 21.6L236.7 19.3H224.6L224.4 21.6C224.4 21.6 225 21.7 225.6 21.8C226.7 22.1 227.4 22.8 227.4 23.9V40.6H215.4V23.7C215.4 22.6 216 22 217.1 21.7C217.7 21.6 218 21.5 218 21.5L218.2 19.2H206L205.8 21.5C205.8 21.5 206.4 21.6 207 21.7C208.1 22 208.7 22.6 208.7 23.7V62.1C208.7 63.2 208.1 63.8 207 64.1C206.4 64.2 206.1 64.3 206.1 64.3L205.9 66.6H218L218.2 64.3C218.2 64.3 217.6 64.2 217 64.1C215.9 63.8 215.3 63.2 215.3 62.1V43.2H227.3V62C227.3 63.1 226.6 63.8 225.5 64.1C224.9 64.2 224.6 64.3 224.6 64.3L224.4 66.6H236.5L236.7 64.3C236.7 64.3 236.1 64.2 235.5 64.1C234.5 63.8 233.9 63.2 233.9 62.1Z"/>
<path d="M253.8 18.5C245.9 18.5 241.2 23.4 241.2 32.7V52.9C241.2 62.1 246 67.1 253.8 67.1C261.7 67.1 266.4 62.2 266.4 52.9V32.7C266.5 23.5 261.7 18.5 253.8 18.5ZM259.9 53.2C259.9 61.9 257.9 64.8 253.8 64.8C249.7 64.8 247.8 61.9 247.8 53.2V32.4C247.8 23.7 249.8 20.8 253.9 20.8C258 20.8 259.9 23.7 259.9 32.4V53.2Z"/>
<path d="M129.7 53.2C129.7 61.9 127.7 64.8 123.6 64.8C119.5 64.8 117.6 61.9 117.6 53.2V32.4C117.6 23.7 119.6 20.8 123.7 20.8C127.4 20.8 129.4 23.1 129.7 30.1L136.2 30.5V16.9H132.7V20C132.7 20.9 132.1 21.3 131.4 20.8C129.4 19.4 126.7 18.5 123.6 18.5C115.7 18.5 111 23.4 111 32.7V52.9C111 62.1 115.8 67.1 123.6 67.1C131.5 67.1 136.2 62.2 136.2 52.9V51.5L129.6 52.1V53.2H129.7V53.2Z"/>
<path d="M319 67.1C322.4 67.1 325.3 66.2 327.6 64.4C328.3 63.9 328.8 64.1 328.8 65.1V68.7H332.3V47.3H325.7H320.6V50.4H325.7V53.2C325.7 61.9 323.1 64.8 319.1 64.8C315 64.8 313.1 61.9 313.1 53.2V32.4C313.1 23.7 315.1 20.8 319.2 20.8C322.9 20.8 324.9 23.1 325.2 30.1L331.7 30.5V16.9H328.2V20C328.2 20.9 327.6 21.3 326.9 20.8C324.9 19.4 322.2 18.5 319.1 18.5C311.2 18.5 306.5 23.4 306.5 32.7V52.9C306.4 62.2 311.1 67.1 319 67.1Z"/>
<path d="M94.8 38.7C90.7 36.1 86.1 34.2 86.1 28.9C86.1 23.6 88.5 20.9 92.6 20.9C96.8 20.9 98.6 23.8 98.6 30.1L105.2 30.6V16.9H101.7V19.5C101.7 20.4 101.1 20.7 100.4 20.3C98.2 19 95.9 18.5 92.5 18.5C84.9 18.5 79.9 22 79.9 30.5C79.9 38 86 40.7 91 43.8C97.1 47.7 100 51.3 100 55.2C100 60.9 98.3 64.6 93.6 64.6C88.4 64.6 86.5 59.7 86.5 52L79.9 52.6C79.9 61.8 84 66.9 93.6 66.9C103.2 66.9 106.5 61.9 106.5 53.9C106.5 46.2 100.8 42.5 94.8 38.7Z"/>
<path d="M342.9 40.5C337.1 41 336.4 53.4 344.1 56.3L344.7 54.9C343 53 342.1 50.9 341.7 48.2C341.3 45.2 341.8 42.4 343.4 42.4C346.4 42.4 349.2 50.1 347.5 57.4C345 68.4 336.6 75.9 324.1 75.9C311.5 75.9 299.7 67.4 299.1 49.9V23.7C299.1 22.6 299.7 22 300.8 21.7C301.4 21.6 301.7 21.5 301.7 21.5L301.9 19.2H289.8L289.6 21.5C289.6 21.5 290.2 21.6 290.8 21.7C291.9 22 292.5 22.6 292.5 23.7V53.2C292.5 61.9 290.5 64.8 286.4 64.8C282.3 64.8 280.4 61.9 280.4 53.2V23.8C280.4 22.7 281 22 282.1 21.8C282.7 21.7 283 21.6 283 21.6L283.2 19.3H271.1L270.9 21.6C270.9 21.6 271.5 21.7 272.1 21.8C273.2 22.1 273.8 22.7 273.8 23.8V53C273.8 62.2 278.6 67.2 286.4 67.2C291.1 67.2 294.7 65.4 296.9 62C297.2 61.5 297.5 61.5 297.7 61.9C303.4 75.2 314.3 78.3 324.7 78.3C338.5 78.3 350 69.4 351.8 57.3C353.4 47.3 347.7 40 342.9 40.5Z"/>
</svg>