<svg width="300" height="83" viewBox="0 0 300 83" fill="none" xmlns="http://www.w3.org/2000/svg">
<path d="M69.2 55.2998L62.5 45.7998L56.2 55.2998H44L56.3 37.0998L45 21.2998H58.5L63.9 29.0998L69 21.2998H81L70 37.5998L82.6 55.1998L69.2 55.2998Z" fill="#33175A"/>
<path d="M33.6 44.6002C33.6 44.6002 32 47.0002 27.5 47.0002C21.8 47.0002 21.1 42.3002 21.1 42.3002H45.8C45.9 40.9002 45.8 39.7002 45.8 38.3002C45.8 28.3002 38.1 20.2002 28.1 20.2002C18.1 20.2002 10 28.2002 10 38.2002C10 48.2002 18.1 56.3002 28.1 56.3002C35.9 56.3002 42.4 52.0002 44.8 44.6002H33.6ZM28.1 30.0002C33.2 30.0002 34.9 34.3002 34.9 34.3002H21.6C21.6 34.3002 23 30.0002 28.1 30.0002Z" fill="#33175A"/>
<path d="M115.8 25.8002C111.5 21.3002 106.3 20.7002 103.9 20.7002C100.1 20.7002 96.7001 22.6002 95.2001 24.1002V21.1002H84.6001V65.8002H95.4001V52.4002C99.3001 55.0002 101.9 55.5002 104.1 55.5002C106.9 55.5002 111.2 55.1002 116.1 50.0002C120.3 45.6002 120.7 40.1002 120.7 38.3002C120.8 31.5002 117.7 27.9002 115.8 25.8002ZM102.7 45.9002C98.6001 45.9002 95.3001 42.6002 95.3001 38.5002C95.3001 34.4002 98.6001 31.1002 102.7 31.1002C106.8 31.1002 110.1 34.4002 110.1 38.5002C110.1 42.6002 106.8 45.9002 102.7 45.9002Z" fill="#33175A"/>
<path d="M141.2 20.5C131.3 20.5 123.3 28.5 123.3 38.4C123.3 48.3 131.3 56.3 141.2 56.3C151.1 56.3 159.1 48.3 159.1 38.4C159.1 28.5 151.1 20.5 141.2 20.5ZM141.2 45.9C137.1 45.9 133.7 42.6 133.7 38.4C133.7 34.3 137 30.9 141.2 30.9C145.3 30.9 148.7 34.2 148.7 38.4C148.6 42.5 145.3 45.9 141.2 45.9Z" fill="#33175A"/>
<path d="M196.2 20.5C186.3 20.5 178.3 28.5 178.3 38.4C178.3 48.3 186.3 56.3 196.2 56.3C206.1 56.3 214.1 48.3 214.1 38.4C214.1 28.5 206.1 20.5 196.2 20.5ZM196.2 45.9C192.1 45.9 188.7 42.6 188.7 38.4C188.7 34.3 192 30.9 196.2 30.9C200.3 30.9 203.7 34.2 203.7 38.4C203.7 42.6 200.4 45.9 196.2 45.9Z" fill="#33175A"/>
<path d="M174 10.7998H163.2V55.2998H174V10.7998Z" fill="#33175A"/>
<path d="M241.8 21.2002V22.7002C239.4 21.4002 236.7 20.7002 233.8 20.7002C224.4 20.7002 216.8 28.3002 216.8 37.7002C216.8 47.1002 224.4 54.7002 233.8 54.7002C236.5 54.7002 239 54.1002 241.3 53.0002C241.3 53.8002 241.3 54.5002 241.3 55.0002C241.3 56.7002 239 59.7002 235.2 59.7002C232.8 59.7002 230.9 59.0002 230.1 56.8002H218.6C218.6 57.4002 218.7 58.5002 218.8 58.9002C220.5 64.9002 227.1 68.9002 234.7 68.9002C243.8 68.9002 251.8 63.7002 251.8 55.2002V21.2002H241.8ZM227.6 37.7002C227.6 33.8002 230.8 30.6002 234.7 30.6002C238.6 30.6002 241.8 33.8002 241.8 37.7002C241.8 41.6002 238.6 44.8002 234.7 44.8002C230.7 44.9002 227.6 41.7002 227.6 37.7002Z" fill="#33175A"/>
<path d="M253.9 21.3994H265.9L271.9 38.3994L278.7 21.3994H290L272.4 65.3994H261.1L266.2 52.2994L253.9 21.3994Z" fill="#33175A"/>
</svg>
