<?xml version="1.0" encoding="UTF-8" standalone="no"?>
<!-- Created with Inkscape (http://www.inkscape.org/) -->
<svg
   xmlns:svg="http://www.w3.org/2000/svg"
   xmlns="http://www.w3.org/2000/svg"
   version="1.0"
   width="700"
   height="120"
   id="svg2">
  <defs
     id="defs4" />
  <path
     d="M 34.034031,112.36 L 88.284031,112.36 C 95.774031,112.36 101.79403,106.34 101.79403,98.85 L 101.79403,69.03 L 39.424031,69.03 L 39.424031,60.91 L 101.79403,60.91 L 101.79403,55.52 C 101.79403,48.03 95.774031,42.01 88.284031,42.01 L 34.034031,42.01 C 26.544031,42.01 20.524031,48.03 20.524031,55.52 L 20.524031,85.34 L 82.754031,85.34 L 82.754031,93.46 L 20.524031,93.46 L 20.524031,98.85 C 20.524031,106.34 26.544031,112.36 34.034031,112.36 z M 47.544031,20.31 C 47.544031,27.8 53.634031,33.82 61.124032,33.82 C 68.614031,33.82 74.634031,27.8 74.634031,20.31 C 74.634031,12.82 68.614031,6.8 61.124032,6.8 C 53.634031,6.8 47.544031,12.82 47.544031,20.31 z"
     id="path7022"
     style="fill:#ed1c24" />
  <path
     d="M 164.89197,64.41 L 164.89197,60.77 C 164.19197,60.63 161.95197,60.21 159.08197,60.21 C 152.85197,60.21 149.21197,63.78 149.21197,70.43 L 149.21197,77.22 L 144.87197,77.22 L 144.87197,80.79 L 149.28197,80.79 L 149.28197,112.36 L 153.83197,112.36 L 153.83197,80.79 L 162.09197,80.79 L 162.09197,77.22 L 153.76197,77.22 L 153.76197,71.34 C 153.76197,66.23 155.23197,63.92 160.06197,63.92 C 161.53197,63.92 163.49197,64.2 164.89197,64.41 z"
     id="path7031"
     style="fill:#ed1c24" />
  <path
     d="M 176.869,65.88 C 176.869,63.99 175.329,62.45 173.509,62.45 C 171.619,62.45 170.149,63.99 170.149,65.88 C 170.149,67.7 171.619,69.24 173.509,69.24 C 175.329,69.24 176.869,67.7 176.869,65.88 z M 176.589,112.36 L 176.589,77.22 L 167.279,77.22 L 167.279,80.3 C 168.679,80.44 170.429,80.65 172.039,80.93 L 172.039,112.36 L 176.589,112.36 z"
     id="path7036"
     style="fill:#ed1c24" />
  <path
     d="M 214.43802,112.36 L 214.43802,87.79 C 214.43802,80.65 210.30802,76.52 203.23802,76.52 C 197.56802,76.52 193.71802,78.97 191.47802,82.82 L 191.47802,77.22 L 186.92802,77.22 L 186.92802,112.36 L 191.47802,112.36 L 191.47802,91.71 C 191.47802,85.41 196.02802,80.44 201.97802,80.44 C 207.50802,80.44 209.88802,83.38 209.88802,89.4 L 209.88802,112.36 L 214.43802,112.36 z"
     id="path7041"
     style="fill:#ed1c24" />
  <path
     d="M 248.56298,112.29 L 248.56298,87.93 C 248.56298,80.02 244.71298,76.52 235.61298,76.52 C 231.13298,76.52 228.19298,77.15 225.25298,78.06 L 225.25298,82.12 C 227.35298,81.35 230.57298,80.23 234.84298,80.23 C 241.77298,80.23 244.08298,82.75 244.08298,88.14 L 244.08298,90.45 L 240.72298,90.45 C 235.68298,90.45 231.76298,91.01 228.82298,92.34 C 224.48298,94.23 222.38298,97.66 222.38298,102.42 C 222.38298,110.19 227.42298,113.06 233.37298,113.06 C 238.34298,113.06 242.26298,110.89 244.15298,109.07 L 244.22298,112.29 L 248.56298,112.29 z M 244.08298,105.08 C 241.98298,107.39 238.62298,109.28 234.42298,109.28 C 228.89298,109.28 227.14298,105.99 227.14298,102.49 C 227.14298,95.77 232.11298,94.16 240.72298,94.16 L 244.08298,94.16 L 244.08298,105.08 z"
     id="path7046"
     style="fill:#ed1c24" />
  <path
     d="M 286.47499,112.36 L 286.47499,87.79 C 286.47499,80.65 282.34499,76.52 275.27499,76.52 C 269.60499,76.52 265.75499,78.97 263.51499,82.82 L 263.51499,77.22 L 258.96499,77.22 L 258.96499,112.36 L 263.51499,112.36 L 263.51499,91.71 C 263.51499,85.41 268.06499,80.44 274.01499,80.44 C 279.54499,80.44 281.92499,83.38 281.92499,89.4 L 281.92499,112.36 L 286.47499,112.36 z"
     id="path7056"
     style="fill:#ed1c24" />
  <path
     d="M 321.18801,112.36 L 321.18801,108.79 L 299.76801,108.79 C 301.58801,105.71 305.50801,100.04 309.49801,94.79 C 314.53801,88.14 319.22801,82.33 320.48801,80.79 L 320.48801,77.22 L 295.49801,77.22 L 295.49801,80.79 L 315.23801,80.79 C 313.48801,82.89 310.19801,86.95 305.99801,92.62 C 300.39801,100.11 296.05801,106.69 294.79801,108.79 L 294.79801,112.36 L 321.18801,112.36 z"
     id="path7051"
     style="fill:#ed1c24" />
  <path
     d="M 353.535,65.6 C 353.535,62.59 350.875,60.21 347.655,60.21 C 344.505,60.21 341.845,62.59 341.845,65.6 C 341.845,68.54 344.505,70.92 347.655,70.92 C 350.875,70.92 353.535,68.54 353.535,65.6 z M 353.325,112.36 L 353.325,76.66 L 339.255,76.66 L 339.255,82.82 C 340.515,82.89 342.825,83.17 343.665,83.31 L 343.665,112.36 L 353.325,112.36 z"
     id="path-i"
     style="fill:#ed1c24" />
  <path
     d="M 396.081,112.36 L 396.081,87.86 C 396.081,80.51 391.951,75.96 384.321,75.96 C 379.771,75.96 375.851,77.99 373.961,80.79 L 373.681,76.66 L 364.581,76.66 L 364.581,112.36 L 374.241,112.36 L 374.241,91.85 C 374.241,87.72 377.461,84.08 381.101,84.08 C 384.321,84.08 386.421,85.83 386.421,90.17 L 386.421,112.36 L 396.081,112.36 z"
     id="path-n"
     style="fill:#ed1c24" />
  <path
     d="M 426.72698,68.19 L 426.72698,61.05 C 425.04698,60.7 421.96698,60.21 418.46698,60.21 C 411.25698,60.21 406.49698,63.99 406.49698,71.83 L 406.49698,76.66 L 402.36698,76.66 L 402.36698,84.22 L 406.56698,84.22 L 406.56698,112.36 L 416.22698,112.36 L 416.22698,84.22 L 423.92698,84.22 L 423.92698,76.66 L 416.15698,76.66 L 416.15698,73.02 C 416.15698,68.96 417.83698,67.56 421.12698,67.56 C 423.22698,67.56 425.39698,67.91 426.72698,68.19 z"
     id="path-f"
     style="fill:#ed1c24" />
  <path
     d="M 461.44,94.51 C 461.44,83.66 455.63,75.82 444.36,75.82 C 433.09,75.82 427.28,83.66 427.28,94.51 C 427.28,104.94 433.44,113.2 444.36,113.2 C 455.28,113.2 461.44,104.94 461.44,94.51 z M 451.22,94.51 C 451.22,101.51 449.05,105.78 444.36,105.78 C 439.67,105.78 437.5,101.51 437.5,94.51 C 437.5,87.51 439.67,83.24 444.36,83.24 C 449.05,83.24 451.22,87.51 451.22,94.51 z"
     id="path-o"
     style="fill:#ed1c24" />
  <path
     d="M 492.57598,85.48 L 492.57598,76.66 C 492.15598,76.52 490.82598,76.24 489.42598,76.24 C 485.57598,76.24 482.21598,78.55 479.97598,83.1 L 479.69598,76.66 L 470.59598,76.66 L 470.59598,112.36 L 480.25598,112.36 L 480.25598,94.51 C 480.25598,90.31 483.05598,85.13 488.86598,85.13 C 490.47598,85.13 491.87598,85.34 492.57598,85.48 z"
     id="path-r"
     style="fill:#ed1c24" />
  <path
     d="M 549.122,112.36 L 549.122,87.72 C 549.122,80.37 545.482,75.96 537.922,75.96 C 532.952,75.96 529.592,78.27 527.352,81.28 C 525.742,77.85 522.522,75.96 517.622,75.96 C 513.142,75.96 509.852,77.99 507.962,80.79 L 507.682,76.66 L 498.582,76.66 L 498.582,112.36 L 508.242,112.36 L 508.242,91.85 C 508.242,87.72 510.762,84.08 514.402,84.08 C 517.622,84.08 519.022,85.83 519.022,89.82 L 519.022,112.36 L 528.682,112.36 L 528.682,91.85 C 528.682,87.72 531.202,84.08 534.842,84.08 C 538.062,84.08 539.462,85.83 539.462,89.82 L 539.462,112.36 L 549.122,112.36 z"
     id="path-m"
     style="fill:#ed1c24" />
  <path
     d="M 586.90795,112.36 L 586.90795,88.14 C 586.90795,79.46 582.28795,75.96 572.41795,75.96 C 567.58795,75.96 564.08795,76.45 560.02795,77.57 L 560.02795,84.92 C 563.94795,83.52 567.16795,82.89 570.31795,82.89 C 575.63795,82.89 577.38795,84.43 577.38795,88 L 577.38795,89.4 C 576.33795,89.4 574.51795,89.47 573.53795,89.54 C 570.52795,89.68 567.86795,90.03 565.62795,90.8 C 560.30795,92.55 557.22795,96.19 557.22795,102.28 C 557.22795,110.05 562.19795,113.06 568.14795,113.06 C 572.76795,113.06 576.26795,111.03 577.59795,109.77 L 577.87795,112.36 L 586.90795,112.36 z M 577.38795,103.82 C 576.19795,104.8 573.60795,105.92 571.01795,105.92 C 567.72795,105.92 566.60795,103.75 566.60795,101.58 C 566.60795,98.01 568.91795,95.91 575.91795,95.91 L 577.38795,95.91 L 577.38795,103.82 z"
     id="path-a"
     style="fill:#ed1c24" />
  <path
     d="M 618.67394,111.73 L 616.99394,104.8 C 615.87394,105.15 613.77394,105.5 611.81394,105.5 C 609.36394,105.5 608.03394,104.31 608.03394,100.95 L 608.03394,84.22 L 616.99394,84.22 L 616.99394,76.66 L 608.03394,76.66 L 608.03394,64.9 C 604.67394,66.65 601.03394,68.12 598.37394,69.1 L 598.37394,76.66 L 593.12394,76.66 L 593.12394,84.22 L 598.37394,84.22 L 598.37394,102.07 C 598.37394,108.58 601.31394,113.06 609.01394,113.06 C 612.44394,113.06 615.52394,112.57 618.67394,111.73 z"
     id="path-t"
     style="fill:#ed1c24" />
  <path
     d="M 634.96996,65.6 C 634.96996,62.59 632.30996,60.21 629.08996,60.21 C 625.93996,60.21 623.27996,62.59 623.27996,65.6 C 623.27996,68.54 625.93996,70.92 629.08996,70.92 C 632.30996,70.92 634.96996,68.54 634.96996,65.6 z M 634.75996,112.36 L 634.75996,76.66 L 620.68996,76.66 L 620.68996,82.82 C 621.94996,82.89 624.25996,83.17 625.09996,83.31 L 625.09996,112.36 L 634.75996,112.36 z"
     id="path7103"
     style="fill:#ed1c24" />
  <path
     d="M 679.47597,112.36 C 674.15597,103.61 668.69597,96.47 664.77597,92.13 L 678.42597,76.66 L 666.87597,76.66 L 655.67597,90.03 L 655.67597,60.91 L 646.01597,60.91 L 646.01597,112.36 L 655.67597,112.36 L 655.67597,95.56 C 660.08597,101.37 664.70597,107.6 667.64597,112.36 L 679.47597,112.36 z"
     id="path-k"
     style="fill:#ed1c24" />
</svg>
