<svg xmlns="http://www.w3.org/2000/svg" xml:space="preserve" viewBox="4.98 6 81.12 28.92"><path fill="#05055B" d="M5 6.5h9.3v28.4H5zm27.3 28.4H22.1L15.7 6.5h5.7c2.7 0 5 2 5.5 4.5zm1.4-28.4H43v28.4h-9.3zm10.7 5.1c0-3.1 2.5-5.6 5.7-5.6 3.1 0 5.6 2.5 5.6 5.6 0 3.2-2.5 5.7-5.6 5.7-3.2 0-5.7-2.5-5.7-5.7m12.8-5.1h9.3v28.4h-9.3zm28.9 28.4H75.9s-6.6-10.7-7.5-12.2-.9-2.5 0-3.9c1-1.5 7.5-12.3 7.5-12.3h10.2l-7.9 12.9c-.6.9-.6 1.6.1 2.6.1.2 7.8 12.9 7.8 12.9" style="--darkreader-inline-fill:var(--darkreader-background-05055b, #040449)"/></svg>