<?xml version="1.0" encoding="UTF-8"?>
<svg id="Layer_1" data-name="Layer 1" xmlns="http://www.w3.org/2000/svg" xmlns:xlink="http://www.w3.org/1999/xlink" version="1.1" viewBox="0 0 569.4 58">
  <defs>
    <style>
      .cls-1 {
        fill: #003087;
      }

      .cls-1, .cls-2, .cls-3, .cls-4 {
        stroke-width: 0px;
      }

      .cls-2 {
        fill: url(#linear-gradient);
      }

      .cls-3 {
        fill: #a89968;
      }

      .cls-4 {
        fill: #6cace4;
      }
    </style>
    <linearGradient id="linear-gradient" x1="521.4" y1="60" x2="545.2" y2="41.2" gradientTransform="translate(0 74.1) scale(1 -1)" gradientUnits="userSpaceOnUse">
      <stop offset="0" stop-color="#6cace4"/>
      <stop offset=".5" stop-color="#6cace4"/>
      <stop offset="1" stop-color="#003087"/>
    </linearGradient>
  </defs>
  <path class="cls-4" d="M36.1,7.2c0,4-3.2,7.2-7.2,7.2s-7.1-3.2-7.1-7.2S25,0,29,0s7.2,3.2,7.2,7.2Z"/>
  <path class="cls-4" d="M36.1,29c0,3.9-3.2,7.1-7.2,7.1s-7.1-3.2-7.1-7.1,3.2-7.2,7.1-7.2,7.2,3.2,7.2,7.2Z"/>
  <path class="cls-4" d="M14.3,29c0,3.9-3.2,7.1-7.2,7.1s-7.2-3.2-7.2-7.1,3.2-7.2,7.2-7.2,7.2,3.2,7.2,7.2Z"/>
  <path class="cls-1" d="M58,29c0,3.9-3.2,7.1-7.2,7.1s-7.2-3.2-7.2-7.1,3.2-7.2,7.2-7.2,7.2,3.2,7.2,7.2Z"/>
  <path class="cls-1" d="M36.1,50.8c0,3.9-3.2,7.2-7.2,7.2s-7.1-3.2-7.1-7.2,3.2-7.2,7.1-7.2,7.2,3.2,7.2,7.2Z"/>
  <path class="cls-1" d="M81.6,19.6c-3.7,0-6.4,2.9-6.4,6.8s2.7,6.8,6.4,6.8,6.3-2.9,6.3-6.8-2.7-6.8-6.3-6.8ZM81.6,36.5c-6,0-10.3-4.2-10.3-10.1s4.2-10,10.3-10,10.3,4,10.3,10-4.3,10.1-10.3,10.1Z"/>
  <path class="cls-1" d="M106.1,21.4c-2.1-.9-3.7-1.4-5-1.4s-2.8.7-2.8,1.8.5,1.3,1.8,2.1c3,1.6,4.9,2.8,5.8,3.7.8.8,1.3,2.1,1.3,3.5,0,3.5-2.5,5.5-6.8,5.5s-1.2,0-1.7-.1c-1.4-.2-2-.4-4-1.3l-1.3-.6,1.6-3.4c1.4.8,2,1.1,2.8,1.3,1,.4,2,.6,2.8.6,1.7,0,2.8-.8,2.8-1.9s-.4-1.4-1.7-2.1l-3-1.7c-3.4-2-4.5-3.3-4.5-5.4s.3-2,.8-2.7c.3-.5.8-1,1.4-1.4,1.4-1,2.6-1.3,4.9-1.3s2.4.1,3.6.5c.9.3,1.5.5,2.8,1.1l-1.5,3.3Z"/>
  <path class="cls-1" d="M111,36.2v-19.4h3.7v16.2h7.9v3.1h-11.6Z"/>
  <path class="cls-1" d="M134.1,19.6c-3.7,0-6.4,2.9-6.4,6.8s2.7,6.8,6.4,6.8,6.3-2.9,6.3-6.8-2.7-6.8-6.3-6.8ZM134.1,36.5c-6,0-10.3-4.2-10.3-10.1s4.2-10,10.3-10,10.3,4,10.3,10-4.3,10.1-10.3,10.1Z"/>
  <path class="cls-1" d="M168.3,35.1c-1.4,1-3.1,1.4-5.5,1.4s-4-.4-5.5-1.4c-2-1.4-2.6-3-2.6-6.5v-11.8h3.7v12c0,2.9,1.5,4.3,4.6,4.3s4.3-1.5,4.3-4.3v-12h3.7v11.8c0,3.5-.6,5.1-2.7,6.5Z"/>
  <path class="cls-1" d="M188.7,36.3l-8.3-12.5-.6-1.2c-.1-.2-.2-.4-.3-.7v14.2h-3.5v-19.4h4.3l7.8,12.3c.6.9.8,1.5,1,2.1v-14.4h3.5v19.5h-3.9Z"/>
  <path class="cls-1" d="M198,16.8h3.7v19.4h-3.7v-19.4Z"/>
  <path class="cls-1" d="M214,36.7h-2.6l-7.2-19.9h4l4.4,13.1c0,.3.2.6.2.9,0-.3,0-.5.2-.9l4.2-13.1h3.9l-7.2,19.9Z"/>
  <path class="cls-1" d="M223.9,36.2v-19.4h11.8v3.1h-8.1v4.8h6.6v3.1h-6.6v5.2h8.5v3.1h-12.2Z"/>
  <path class="cls-1" d="M245.9,19.9h-2.4v5.3h2.4c2.3,0,3.4-.8,3.4-2.8s-1-2.6-3.4-2.6ZM249.7,36.2l-4.4-7.7h-1.8v7.7h-3.7v-19.4h6.5c2.8,0,4.1.4,5.2,1.4,1.1,1,1.6,2.4,1.6,4.2s-.4,2.7-1.1,3.6c-.7.9-1.4,1.3-3,1.8l4.8,8.3h-4Z"/>
  <path class="cls-1" d="M267.6,21.4c-2.1-.9-3.7-1.4-5-1.4s-2.8.7-2.8,1.8.5,1.3,1.8,2.1c3,1.6,4.9,2.8,5.8,3.7.8.8,1.3,2.1,1.3,3.5,0,3.5-2.5,5.5-6.8,5.5s-1.2,0-1.7-.1c-1.4-.2-2-.4-4-1.3l-1.3-.6,1.6-3.4c1.4.8,2,1.1,2.8,1.3,1,.4,2,.6,2.8.6,1.7,0,2.8-.8,2.8-1.9s-.4-1.4-1.7-2.1l-3-1.7c-3.4-2-4.5-3.3-4.5-5.4s.3-2,.8-2.7c.3-.5.8-1,1.4-1.4,1.4-1,2.6-1.3,4.9-1.3s2.4.1,3.6.5c.9.3,1.5.5,2.8,1.1l-1.5,3.3Z"/>
  <path class="cls-1" d="M272.5,16.8h3.7v19.4h-3.7v-19.4Z"/>
  <path class="cls-1" d="M288.4,19.9v16.2h-3.7v-16.2h-5.8v-3.1h15.3v3.1h-5.8Z"/>
  <path class="cls-1" d="M297.2,36.2v-19.4h11.8v3.1h-8.1v4.8h6.6v3.1h-6.6v5.2h8.5v3.1h-12.2Z"/>
  <path class="cls-1" d="M320.1,19.9v16.2h-3.7v-16.2h-5.8v-3.1h15.3v3.1h-5.8Z"/>
  <path class="cls-1" d="M339.5,21.4c-2.1-.9-3.7-1.4-5-1.4s-2.8.7-2.8,1.8.5,1.3,1.8,2.1c3,1.6,4.9,2.8,5.8,3.7.8.8,1.3,2.1,1.3,3.5,0,3.5-2.5,5.5-6.8,5.5s-1.2,0-1.7-.1c-1.4-.2-2-.4-4-1.3l-1.3-.6,1.6-3.4c1.4.8,2,1.1,2.8,1.3,1,.4,2,.6,2.8.6,1.7,0,2.8-.8,2.8-1.9s-.4-1.4-1.7-2.1l-3-1.7c-3.4-2-4.5-3.3-4.5-5.4s.3-2,.8-2.7c.3-.5.8-1,1.4-1.4,1.4-1,2.6-1.3,4.9-1.3s2.4.1,3.6.5c.9.3,1.5.5,2.8,1.1l-1.5,3.3Z"/>
  <path class="cls-1" d="M355.1,21.4c-2.1-.9-3.7-1.4-5-1.4s-2.8.7-2.8,1.8.5,1.3,1.8,2.1c3,1.6,4.9,2.8,5.8,3.7.8.8,1.3,2.1,1.3,3.5,0,3.5-2.5,5.5-6.8,5.5s-1.2,0-1.7-.1c-1.4-.2-2-.4-4-1.3l-1.3-.6,1.6-3.4c1.4.8,2,1.1,2.8,1.3,1,.4,2,.6,2.8.6,1.7,0,2.8-.8,2.8-1.9s-.4-1.4-1.7-2.1l-3-1.7c-3.4-2-4.5-3.3-4.5-5.4s.3-2,.8-2.7c.3-.5.8-1,1.4-1.4,1.4-1,2.6-1.3,4.9-1.3s2.4.1,3.6.5c.9.3,1.5.5,2.8,1.1l-1.5,3.3Z"/>
  <path class="cls-1" d="M367.1,27.9v8.3h-3.7v-8.3l-5.9-11.1h4l3.9,7.6,4.1-7.6h4l-6.5,11.1Z"/>
  <path class="cls-1" d="M386.2,36.2l-6.5-9.2v9.2h-3.7v-19.4h3.7v9l6.1-9h4.3l-6.7,9.4,7,9.9h-4.2Z"/>
  <path class="cls-1" d="M393,36.2v-19.4h11.8v3.1h-8.1v4.8h6.6v3.1h-6.6v5.2h8.5v3.1h-12.2Z"/>
  <path class="cls-1" d="M422.4,36.2v-8.3h-9.9v8.3h-3.7v-19.4h3.7v7.7h9.9v-7.7h3.7v19.4h-3.7Z"/>
  <path class="cls-1" d="M444.5,35.1c-1.4,1-3,1.4-5.5,1.4s-4-.4-5.5-1.4c-2-1.4-2.6-3-2.6-6.5v-11.8h3.7v12c0,2.9,1.5,4.3,4.6,4.3s4.3-1.5,4.3-4.3v-12h3.7v11.8c0,3.5-.6,5.1-2.7,6.5Z"/>
  <path class="cls-1" d="M462.6,21.4c-2.1-.9-3.7-1.4-5-1.4s-2.8.7-2.8,1.8.5,1.3,1.8,2.1c3,1.6,4.9,2.8,5.8,3.7.8.8,1.3,2.1,1.3,3.5,0,3.5-2.5,5.5-6.8,5.5s-1.2,0-1.7-.1c-1.4-.2-2-.4-4-1.3l-1.3-.6,1.6-3.4c1.4.8,2,1.1,2.8,1.3,1,.4,2,.6,2.8.6,1.7,0,2.8-.8,2.8-1.9s-.4-1.4-1.7-2.1l-3-1.7c-3.4-2-4.5-3.3-4.5-5.4s.3-2,.8-2.7c.3-.5.8-1,1.4-1.4,1.4-1,2.6-1.3,4.9-1.3s2.4.1,3.6.5c.9.3,1.5.5,2.8,1.1l-1.5,3.3Z"/>
  <path class="cls-3" d="M558.4,36.9v-10.4h-10.4v10.4h-10.4v10.4h10.4v10.4h10.4v-10.4h10.4v-10.4h-10.4Z"/>
  <path class="cls-2" d="M511.4,29.2c0,14.7,10.9,26.9,25,28.8v-10.4s0,0,0,0c0,0,0-.2,0-.2-8.4-1.9-14.6-9.3-14.6-18.2s8.4-18.7,18.7-18.7,16.4,6.3,18.2,14.7h.2s10.4,0,10.4,0c-1.9-14.2-14.1-25.2-28.9-25.2s-29.1,13-29.1,29.1Z"/>
  <path class="cls-1" d="M489.4,58h-2.9V0h2.9v58Z"/>
</svg>