<?xml version="1.0" encoding="UTF-8" standalone="no"?>
<!-- Generator: Adobe Illustrator 26.0.2, SVG Export Plug-In . SVG Version: 6.00 Build 0)  -->

<svg
   version="1.1"
   id="Telia_Finance"
   x="0px"
   y="0px"
   viewBox="0 0 546.99998 215.7"
   xml:space="preserve"
   sodipodi:docname="telia logo 2022.svg"
   width="547"
   height="215.7"
   inkscape:version="1.1.2 (b8e25be833, 2022-02-05)"
   xmlns:inkscape="http://www.inkscape.org/namespaces/inkscape"
   xmlns:sodipodi="http://sodipodi.sourceforge.net/DTD/sodipodi-0.dtd"
   xmlns="http://www.w3.org/2000/svg"
   xmlns:svg="http://www.w3.org/2000/svg"><defs
   id="defs863" /><sodipodi:namedview
   id="namedview861"
   pagecolor="#ffffff"
   bordercolor="#666666"
   borderopacity="1.0"
   inkscape:pageshadow="2"
   inkscape:pageopacity="0.0"
   inkscape:pagecheckerboard="0"
   showgrid="false"
   fit-margin-top="0"
   fit-margin-left="0"
   fit-margin-right="0"
   fit-margin-bottom="0"
   inkscape:zoom="0.98410365"
   inkscape:cx="18.798833"
   inkscape:cy="142.76951"
   inkscape:window-width="1920"
   inkscape:window-height="989"
   inkscape:window-x="-9"
   inkscape:window-y="-9"
   inkscape:window-maximized="1"
   inkscape:current-layer="Telia_Finance" />
<style
   type="text/css"
   id="style824">
	.st0{fill:#990AE3;}
	.st1{enable-background:new    ;}
</style>
<g
   id="Symbol">
	<path
   class="st0"
   d="m 141.2,151.6 c 28,-16.2 53.2,-43.7 61.1,-63.3 2.3,-16.2 2.7,-18.3 3,-36.2 0,-2.5 -0.1,-4.8 -0.3,-7.1 -1.6,26.2 -35.5,59.2 -80.4,80.8 -54.1,26 -94.7,33 -112.8,13.2 6.3,12.4 10.4,18.5 17.5,27.7 20.8,18.4 64.8,12.2 111.9,-15.1 z"
   id="path826" />
	<path
   class="st0"
   d="M 118.3,107.1 C 169.3,82.5 204.9,47.5 198.7,24.2 188.5,6.7 167.9,0 145.8,0 80.3,0 0,43.1 0,98.2 c 0,7.1 1.6,15 4.4,23.3 14.9,19.8 60.5,11.4 113.9,-14.4 z"
   id="path828" />
	<path
   class="st0"
   d="m 114,185.1 v 0 C 78.1,199.7 57.6,195 46.2,185.9 L 46,185.8 c 17.6,17.5 37.6,29.9 55.2,29.9 30.8,0 72.9,-37.3 92.8,-95.2 -11.3,20.9 -35.4,46.6 -80,64.6 z"
   id="path830" />
</g>
<g
   id="Wordmark">
	<path
   class="st0"
   d="M 327.3,76.2 H 294 V 170 H 272.9 V 76.2 H 239.3 V 57.9 h 88 z"
   id="path833" />
	<path
   class="st0"
   d="m 390.7,135.5 h -59 c 2.1,11.8 10.6,19.7 21.4,19.7 8.2,0 14.7,-3.7 18.7,-9.8 l 15.7,9.4 c -8,10.7 -21.1,17.1 -34.4,17.1 -21.9,0 -41,-17.4 -41,-42.4 0,-25 18.9,-42.2 40,-42.2 27.7,0.1 41.3,22.1 38.6,48.2 z m -58.4,-14.9 h 39.4 c -2.4,-10.4 -9.1,-17 -19.5,-17 -9.9,0.1 -17.2,6.8 -19.9,17 z"
   id="path835" />
	<path
   class="st0"
   d="m 432.6,170.2 c -3,0.6 -6.2,0.8 -9.1,0.8 -14.1,0 -20.3,-6.7 -20.3,-20.3 V 57.9 h 19.7 V 148 c 0,6.9 4.2,7.8 9.8,7.2 v 15 z"
   id="path837" />
	<path
   class="st0"
   d="m 442.8,67.2 c 0,-6.2 5.4,-11.4 11.7,-11.4 6.1,0 11.5,5.1 11.5,11.4 0,6.3 -5.4,11.4 -11.5,11.4 -6.2,0 -11.7,-5.2 -11.7,-11.4 z m 1.8,102.7 v -80 h 19.7 v 80 z"
   id="path839" />
	<path
   class="st0"
   d="m 547,113.3 v 56.6 h -18.4 v -9.3 c -6.2,8.2 -16.2,11.2 -24.5,11.2 -17.3,0 -27.5,-10.9 -27.5,-24.5 0,-15.5 17.4,-28.2 38.7,-28.2 4.2,0 8.6,0.3 12.6,1.6 v -5.3 c 0,-8 -4.6,-12.2 -14.1,-12.2 -8.5,0 -16,4.3 -20.6,9.9 L 479.3,103 c 7.8,-9.1 21.3,-15.5 34.9,-15.5 21.3,0 32.8,9.3 32.8,25.8 z M 527.9,139 v -3.5 c -3.2,-1.1 -6.6,-1.4 -10.7,-1.4 -14.4,0 -21.8,5.8 -21.8,12.8 0,5.8 5,9.4 12.5,9.4 10,0 20,-5.9 20,-17.3 z"
   id="path841" />
</g>

</svg>
